<?xml version="1.0" encoding="utf-8"?>
<!-- Generator: Adobe Illustrator 25.2.1, SVG Export Plug-In . SVG Version: 6.00 Build 0)  -->
<svg version="1.1" id="레이어_1" xmlns="http://www.w3.org/2000/svg" xmlns:xlink="http://www.w3.org/1999/xlink" x="0px"
	 y="0px" viewBox="0 0 132.16 29.86" style="enable-background:new 0 0 132.16 29.86;" xml:space="preserve">
<path d="M50.67,29.86c0.12-0.08,0.23-0.2,0.36-0.23c1.08-0.22,1.52-0.33,1.53-1.7c0.03-3.91,0.08-7.82,0.11-11.72
	c0-0.23-0.06-0.45-0.1-0.83c-0.58,0.9-1,1.69-1.55,2.37c-1.63,2-3.67,3.32-6.28,3.7c-2.23,0.32-4.26-0.11-6.06-1.47
	c-1.03-0.77-1.66-1.83-2-3.07c-0.02-0.07-0.04-0.15-0.07-0.21c-0.01-0.03-0.06-0.05-0.12-0.1c-0.25,0.35-0.5,0.69-0.75,1.04
	c-1.32,1.82-3,3.17-5.22,3.72c-3.42,0.85-6.81-0.65-7.83-3.79c-0.78-2.38-0.3-4.58,1.31-6.49c1.53-1.82,3.5-2.77,5.88-2.93
	C31.25,8.06,32.5,8.32,33.67,9c0.81,0.47,1.35,1.67,1.1,2.56c-0.07,0.25-0.39,0.55-0.65,0.61c-0.53,0.13-1.09,0.14-1.64,0.14
	c-2.37,0.01-4.73,0.01-7.09,0.01c-0.74,3.2,0.98,5.95,4,6.71c2.55,0.64,5.35-0.4,6.89-2.73c0.27-0.41,0.34-0.99,0.39-1.5
	c0.18-2.12,1.3-3.66,2.87-4.98c1.36-1.14,2.94-1.71,4.65-1.71c1.42,0,2.88,0.23,3.96,1.4c0.54,0.59,0.72,1.3,0.59,2.06
	c-0.04,0.24-0.35,0.54-0.59,0.61c-0.42,0.13-0.89,0.14-1.33,0.14c-2.19,0.01-4.38,0.01-6.58,0.01c-0.21,0-0.43,0-0.68,0
	c-0.34,2.13,0.1,3.98,1.7,5.47c0.94,0.88,2.11,1.25,3.33,1.39c2.06,0.24,3.98-0.26,5.61-1.54c1.59-1.25,2.63-2.82,2.44-4.98
	c-0.05-0.57-0.05-1.14-0.07-1.71c-0.04-0.92-0.24-1.11-1.17-1.11c-0.2,0-0.39,0-0.61-0.09c0.52-0.13,1.05-0.21,1.55-0.39
	c0.92-0.35,1.83-0.74,2.73-1.14c0.5-0.22,0.69-0.14,0.7,0.39c0.01,0.59,0,1.18,0,1.94c0.24-0.23,0.4-0.34,0.53-0.49
	c0.99-1.18,2.29-1.79,3.79-1.99c1.99-0.27,4.22,1.07,4.92,2.95c1.16,3.14,0.36,6.52-2.13,8.7c-1.15,1.01-2.54,1.61-4.08,1.72
	c-0.98,0.07-1.98,0.01-3.03,0.01c0,0.97,0,1.89,0,2.81c0,1.17-0.01,2.33,0,3.5c0.02,1.42,0.31,1.75,1.65,1.88
	c0.09,0.01,0.16,0.15,0.24,0.23C55.33,29.86,53,29.86,50.67,29.86z M55.76,15.14c0,1.22-0.02,2.45,0.01,3.67
	c0.01,0.37,0.1,0.81,0.31,1.09c1.33,1.75,4.39,1.74,5.36-0.41c0.31-0.68,0.5-1.42,0.63-2.15c0.35-1.88,0.37-3.76-0.28-5.6
	c-0.87-2.46-2.89-3.17-4.97-1.84c-0.65,0.41-1.14,0.97-1.09,1.87C55.81,12.89,55.76,14.02,55.76,15.14z M39.57,11.96
	c1.78,0,3.52,0.02,5.26-0.03c0.24-0.01,0.59-0.35,0.69-0.62c0.39-0.96-0.31-2.38-1.34-2.66C41.78,7.99,39.81,9.38,39.57,11.96z
	 M25.38,12.04c0.15,0.01,0.27,0.03,0.38,0.03c1.61-0.04,3.22-0.07,4.83-0.12c0.74-0.02,1.23-0.7,1.11-1.48
	c-0.19-1.26-1.56-2.25-2.8-2.05C27.08,8.7,25.57,10.26,25.38,12.04z"/>
<path d="M2.9,21.09c0.22-0.01,0.44,0.02,0.65-0.03c0.81-0.19,1.11-0.56,1.12-1.59c0.06-4.67,0.09-9.35,0.12-14.02
	c0-0.33-0.07-0.66-0.13-0.98C4.58,4,4.23,3.8,3.83,3.67C3.6,3.6,3.36,3.55,3.14,3.43c2.9,0,5.81-0.11,8.71,0.03
	c2.43,0.12,4.72,0.87,6.49,2.67c1.24,1.26,1.88,2.81,2.12,4.56c0.26,1.86,0.18,3.66-0.59,5.41c-0.81,1.83-2.14,3.15-3.9,4.05
	c-1.7,0.87-3.54,1.16-5.42,1.17c-2.55,0.01-5.1,0-7.64,0C2.9,21.24,2.9,21.16,2.9,21.09z M8,17.68c0.04,0,0.08,0,0.12,0
	c0,0.49,0,0.99,0,1.48c0.01,0.6,0.2,1.2,0.77,1.4c1.2,0.43,2.49,0.62,3.74,0.31c2.09-0.53,3.26-2.06,3.77-4.06
	c0.5-1.95,0.83-3.93,0.49-5.96c-0.18-1.07-0.29-2.16-0.61-3.18c-0.49-1.59-1.36-2.93-3.02-3.56c-1.14-0.43-2.31-0.6-3.53-0.46
	C9.03,3.73,8.42,4.1,8.25,4.77c-0.15,0.62-0.24,1.27-0.24,1.9C7.99,10.34,8,14.01,8,17.68z"/>
<path d="M111.47,0.23c0.04,0.25,0.11,0.49,0.11,0.74c0.01,5.23,0,10.46,0.01,15.69c0,1.06,0.06,2.13,0.12,3.19
	c0.04,0.87,0.69,1.13,1.41,1.41c-0.13,0.02-0.25,0.06-0.38,0.06c-1.03,0-2.05,0-3.08,0c-1.18,0-1.5-0.41-1.25-1.57
	c0.05-0.21,0.07-0.43,0.14-0.81c-0.71,0.63-1.26,1.16-1.84,1.64c-2.08,1.69-5.81,1.28-7.2-1.23c-0.77-1.39-0.96-2.92-0.74-4.51
	c0.21-1.51,0.75-2.84,1.67-4.04c1.05-1.37,2.42-2.21,4.14-2.52c1.35-0.24,2.63-0.08,3.92,0.53c0-1.06,0.01-2.04,0-3.02
	c-0.02-0.89-0.08-1.77-0.1-2.66c-0.02-0.81-0.2-1-1-1c-0.29,0-0.58,0-0.89-0.08c1.7-0.31,3.26-0.96,4.73-1.82
	C111.31,0.23,111.39,0.23,111.47,0.23z M108.51,14.63c0-0.89-0.06-1.78,0.02-2.66c0.08-0.87-0.2-1.57-0.75-2.19
	c-0.21-0.23-0.48-0.41-0.71-0.62c-1.42-1.34-3.59-0.67-4.35,0.75c-0.53,0.98-0.62,2.06-0.75,3.15c-0.23,1.84-0.08,3.62,0.63,5.34
	c0.74,1.81,2.46,2.57,4.32,1.62c0.97-0.49,1.72-1.2,1.61-2.48C108.44,16.57,108.51,15.59,108.51,14.63z"/>
<path d="M127.23,17.17c-0.71,1.26-1.6,2.37-2.8,3.17c-1.87,1.25-3.91,1.49-6.08,0.93c-2.61-0.67-4.4-2.92-4.4-5.73
	c0-2.78,1.37-4.73,3.58-6.18c1.95-1.29,4.11-1.51,6.33-0.93c0.86,0.22,1.61,0.73,2.09,1.51c0.34,0.55,0.5,1.15,0.21,1.77
	c-0.09,0.2-0.31,0.42-0.51,0.46c-0.47,0.1-0.97,0.14-1.45,0.14c-2.25,0.01-4.5,0.02-6.75,0c-0.48,0-0.63,0.13-0.65,0.63
	c-0.07,1.79,0.32,3.41,1.64,4.7c0.86,0.84,1.95,1.3,3.09,1.53c1.96,0.39,3.72-0.07,5.12-1.58c0.2-0.21,0.39-0.43,0.59-0.65
	C127.23,17.02,127.23,17.1,127.23,17.17z M116.99,12.08c0.19,0,0.38,0,0.56,0c1.36,0,2.72,0,4.09,0c1.15,0,1.7-0.84,1.34-1.96
	c-0.51-1.6-1.81-1.77-3.22-1.52C118.21,8.86,117.06,10.41,116.99,12.08z"/>
<path d="M82.67,10.09c1.01-0.58,1.97-1.12,2.92-1.69c0.33-0.19,0.59-0.12,0.73,0.19c0.32,0.71,0.6,1.44,0.94,2.27
	c0.39-0.42,0.79-0.92,1.25-1.36c1.42-1.35,3.73-1.72,5.41-0.85c1.22,0.63,1.79,1.77,1.87,3.05c0.16,2.65,0.19,5.31,0.26,7.97
	c0.03,1.11,0.11,1.26,1.16,1.56c-1.88,0-3.75,0-5.63,0c-0.01-0.02-0.01-0.04-0.02-0.06c0.19-0.06,0.41-0.07,0.55-0.18
	c0.24-0.19,0.54-0.43,0.59-0.69c0.12-0.61,0.14-1.25,0.14-1.87c0.02-1.85-0.01-3.7,0.01-5.55c0.01-0.95-0.22-1.84-0.75-2.59
	c-0.71-1.01-1.84-1.4-3.25-0.57c-0.68,0.4-1.17,1.13-1.7,1.74c-0.12,0.13-0.1,0.41-0.11,0.61c-0.01,2.45-0.01,4.9,0,7.35
	c0,1.34,0.01,1.5,1.28,1.85c-1.92,0-3.84,0-5.76,0c0.02-0.05,0.02-0.11,0.04-0.12c1.15-0.17,1.16-0.54,1.22-1.51
	c0.12-1.81,0.13-3.63,0.13-5.44c0-0.84-0.15-1.67-0.22-2.51C83.68,10.97,83.27,10.5,82.67,10.09z"/>
<path d="M81.16,15.58c0.07,2.23-2.46,5.18-5.64,5.82c-2.81,0.57-5.3-0.16-7.02-2.6c-0.92-1.3-1.22-2.79-1.03-4.42
	c0.2-1.71,0.88-3.15,2.11-4.3c1.29-1.21,2.81-1.89,4.63-1.92c1.42-0.02,2.77,0.18,3.98,0.93C80.21,10.33,81.12,12.19,81.16,15.58z
	 M77.72,14.86c-0.04-0.37-0.11-0.86-0.15-1.34c-0.12-1.35-0.46-2.64-1.19-3.79c-0.56-0.87-1.57-1.54-2.66-1.23
	c-1.27,0.36-1.82,1.27-2.18,2.37c-0.56,1.7-0.72,3.45-0.5,5.24c0.17,1.45,0.49,2.82,1.32,4.04c1.06,1.56,3.08,1.55,4.12-0.03
	C77.51,18.55,77.59,16.76,77.72,14.86z"/>
<path d="M117.39,5.28c1.57-0.28,2.27-1.43,2.86-2.73c0.2-0.44,0.43-0.91,0.76-1.25c0.45-0.46,1-0.25,1.42,0.12
	c0.41,0.37,0.37,0.86,0.2,1.35c-0.34,0.99-1.2,1.4-2.05,1.78C119.57,5,118.53,5.36,117.39,5.28z"/>
</svg>
